<svg version="1.1" xmlns="http://www.w3.org/2000/svg" xmlns:xlink="http://www.w3.org/1999/xlink" x="0px" y="0px" viewBox="0 0 60 60" xml:space="preserve">
<style type="text/css">
	.almag1{fill:#FFFFFF;}
</style>
<circle class="svg-background" cx="30" cy="30" r="30"/>
<path class="almag1" d="M30.9,34.7"/>
<path d="M37.3,25.2"/>
<g>
	<path class="almag1" d="M40.8,31.9C40.4,32,40,31.8,40,31.4c-0.1-0.3,0.2-0.6,0.6-0.7c0.4-0.1,0.8,0.2,0.8,0.5
		C41.4,31.6,41.2,31.8,40.8,31.9z"/>
	<path class="almag1" d="M39.4,31c-0.4,0.1-0.7-0.1-0.8-0.5c-0.1-0.3,0.2-0.6,0.6-0.7c0.4-0.1,0.7,0.1,0.8,0.5C40,30.7,39.8,31,39.4,31
		z"/>
	<path class="almag1" d="M14.4,31.9C14,32,13.5,32,13,31.9c-0.9-0.3-1.4-1.3-0.9-2.1c0.4-0.6,1-1,1.7-1.2c0.4-0.2,0.9-0.2,1.3-0.2
		c0.6,0,1.1,0.3,1.3,0.7c0.3,0.5,0.3,1-0.1,1.5C16,31.3,15.3,31.8,14.4,31.9z"/>
	<path class="almag1" d="M40.3,22.8c0.2,0.7-0.3,1.1-0.8,1.5c-0.8,0.5-2.5,0.6-3.2,0c-0.7-0.5-0.8-1.4-0.2-2c0.6-0.6,1.4-0.8,2.3-0.8
		c0.4,0,0.9,0.1,1.2,0.3C40,22.1,40.2,22.4,40.3,22.8z"/>
	<path class="almag1" d="M26.5,27.9c-0.5,0.1-1,0.1-1.5-0.1c-0.6-0.2-1-0.6-1-1.2c-0.1-0.6,0.3-1,0.8-1.4c0.9-0.6,1.9-0.7,2.9-0.4
		c1.1,0.4,1.4,1.5,0.6,2.3C27.7,27.5,27.2,27.7,26.5,27.9z"/>
	<path class="almag1" d="M50.2,21.9c-0.8,0.1-1.6,0-2.3-0.4c-1-0.5-0.9-1.8,0.2-2.4c0.8-0.5,2.6-0.4,3.3,0.1c0.5,0.4,0.7,0.8,0.6,1.3
		c0,0.3-0.3,0.6-0.6,0.8C51.1,21.6,50.7,21.8,50.2,21.9z"/>
	<path class="almag1" d="M54.6,18.6c-0.3,0-0.5,0.1-0.8,0.1c-0.3,0-0.7,0.1-1-0.1c-0.3-0.2-0.5-0.3-0.8-0.3c-0.4-0.1-0.8-0.4-1.3-0.4
		c-0.9-0.1-2.3-0.2-3.5,0.4c0,0-0.9,0.5-1.4,1.1c-0.2,0.2-0.3,0.3-0.3,0.5c-0.1,0.2-0.2,0.3-0.3,0.5c-0.3,0.3-0.6,0.4-1,0.5
		c-0.8,0.3-1.5,0.4-2.3,0.4c-0.5,0-0.6-0.2-1.3-0.4c-0.6-0.2-1.6-0.5-2.9-0.3c-0.5,0.1-1.7,0.2-2.5,1c0,0-0.3,0.3-0.7,0.8
		c-0.9,1-0.8,0.9-0.9,1c-0.9,0.7-2,0.8-2.6,0.8c-0.8,0-1.4-0.1-1.6-0.1c-0.5-0.1-0.5-0.2-1-0.3c-0.3-0.1-1.1-0.3-2-0.2
		c-0.8,0.1-1.3,0.3-1.7,0.4c-0.6,0.2-1,0.5-1.1,0.6c-0.8,0.5-1.2,1.1-1.3,1.4c0,0.1-0.1,0.2-0.1,0.3c0,0.2-0.1,0.3-0.3,0.4
		c-1.1,0.5-2.3,0.9-3.5,1.2c-0.1,0-0.2,0-0.3,0c-0.3,0-0.4-0.1-0.5-0.1c-0.3-0.1-2.1-0.6-4.1,0c-0.6,0.2-1.7,0.5-2.4,1.3
		c-0.5,0.5-0.8,1-0.8,1c-0.4,0.6-0.4,0.8-0.7,1c-0.3,0.2-0.4,0.2-1.1,0.4c-0.3,0.1-0.5,0.2-0.7,0.4c-0.3,0.4-0.7,0.6-1.1,0.8
		c-0.8,0.5-1.4,1.2-1.8,1.9c-0.3,0.5-0.3,1-0.5,1.5c-0.4,1.2-0.1,2.4,0.5,3.5c0.5,1.2,1.5,2,2.6,2.8c1.3,0.9,2.8,1.3,4.3,1.7
		c0.9,0.2,1.8,0.4,2.8,0.5c1,0.1,2,0.2,3.3-0.1c1.1-0.2,1.8-0.5,2.3-0.8c0.7-0.3,1.8-0.9,2.8-1.8c1.5,0,2.8-0.2,3.8-0.3
		c0.9-0.2,2-0.4,3.3-0.9c0.8-0.3,1.2-0.5,1.7-0.8c1-0.7,1.5-1.5,2.1-1.3c0.2,0.1,0.1,0.1,0.5,0.4c0,0,0.6,0.4,1.2,0.5
		c0.3,0,0.6,0,0.7,0c0.9-0.1,1.5-0.7,1.7-0.8c4.9-4.3,8.4-7.4,7.6-9c0,0-0.4-0.3-1.1-0.8c-1.1-0.8-1.7-1.3-2.6-1.6
		c-0.3-0.1-0.5-0.2-0.6-0.2c-0.5,0-0.9,0.3-2,1.2c-0.2,0.2-0.6,0.4-1.2,0.9c-0.1,0.1-0.6,0.4-1.5,1.1c-0.4,0.3-0.7,0.6-1,0.7
		c-1.2,1-2.4,1.9-3.6,2.9c-0.2,0.4-0.2,0.7-0.3,0.9c0,0.7,0.2,1.7,0.4,2.2c0.1,0.2,0.1,0.4-0.2,0.6c-0.2,0.1-0.4,0.2-0.5,0.3
		c-0.3,0.2-0.7,0.4-1,0.6c-0.2,0.1-0.9,0.5-1.5,0.7c-1.4,0.5-3.1,0.7-3.2,0.4c-0.1-0.2,0.8-0.4,1.3-1.3c0.5-0.9,0.6-2.3,0-3.1
		C26,34,24,34.3,21.6,34.6c-1.8,0.3-3.4,0.5-4.8,1.8c-0.4,0.4-1.5,1.5-1.2,2.6c0.3,1,1.9,2,3.2,2.3c0.2,0,0.5,0.1,0.5,0.2
		c0.1,0.3-1,0.8-2,1c-0.9,0.2-1.5,0.1-2.6,0.1c-1-0.1-2-0.3-3-0.5c-0.7-0.2-1.4-0.5-2-0.8c-0.6-0.3-1.2-0.5-1.6-1
		c-0.5-0.4-0.9-1-1.2-1.5c-0.7-1.1-0.7-2.3-0.2-3.6C7,34.7,7.4,34.3,8,34c0.1,0,0.2-0.1,0.2-0.1c0.7,0.1,1.4-0.1,2.2-0.2
		c0.1,0,0.3,0,0.4,0c0.3,0,0.5,0.1,0.6,0.2c0.4,0.2,1.3,0.3,1.8,0.3c1.5,0.1,3.4-0.7,4.6-1.7c1-0.8,1.5-1.7,1.5-1.8c0,0,0,0,0,0
		c0,0,0-0.1,0.1-0.1c0,0,0.8-1.1,2.6-1.2c0.7,0,1.2,0,1.3,0.2c0.1,0.1,0.3,0.2,0.5,0.2c1.3,0.6,2.7,0.6,4.2,0.2
		c0.7-0.2,1.3-0.6,1.8-1c0.6-0.4,1-1,1.2-1.6c0.1-0.2,0.2-0.4,0.4-0.5c0.6-0.3,1.2-0.6,2-0.6c0.3,0,0.5-0.1,0.8-0.1
		c0.3-0.1,0.5,0,0.7,0.1c0.5,0.4,1.1,0.5,1.7,0.7c1,0.3,2,0.1,2.9,0c0.6-0.1,1.2-0.4,1.7-0.7c0.6-0.4,1.2-0.9,1.4-1.6
		c0.1-0.5,0.5-0.7,1-0.8c0.8-0.2,1.5-0.4,2.3-0.5c0.3,0,0.5,0,0.7,0.1c0.4,0.3,0.9,0.5,1.4,0.6c0.7,0.2,1.7,0.3,2.6,0.1
		c2.4-0.4,3.7-2.4,3.8-2.6c0,0,0-0.1,0.1-0.2c0.1-0.1,0.1-0.1,0.3-0.1c0.3-0.1,0.6-0.2,0.9-0.3c0.3-0.1,0.6-0.3,0.6-0.7
		C56.3,19.4,55.4,18.5,54.6,18.6z M36.6,37.6c-0.2,0.1-0.4,0.3-0.6,0.5c-0.1,0.1-0.2,0.1-0.3,0.1c-0.4,0-0.6-0.1-0.9-0.4
		c0,0-0.1-0.1,0-0.1c0,0,0.1,0,0.1,0c0.6,0.1,1.1,0,1.6-0.2c0.1,0,0.1-0.1,0.2,0C36.8,37.6,36.7,37.6,36.6,37.6z M44.6,31.4
		c-0.3,0.2-0.6,0.5-0.9,0.7c-0.6,0.4-1.1,0.9-1.7,1.4c-1.1,0.8-2,1.7-3.1,2.5c-0.1,0.1-0.2,0.2-0.4,0.3c0,0-0.1,0-0.1,0
		c0-0.1,0-0.1,0.1-0.1c0.2-0.2,0.4-0.3,0.6-0.5c0.5-0.4,1-0.8,1.4-1.2c0.5-0.4,1-0.8,1.4-1.2c0.7-0.5,1.3-1.1,2-1.6
		c0.2-0.1,0.3-0.3,0.5-0.4c0.1,0,0.1-0.1,0.2,0C44.7,31.3,44.6,31.3,44.6,31.4z M32.7,34.8c0-0.5,0.4-0.9,0.8-1.2
		c3.1-2.7,3.7-3.1,3.7-3.1c0.8-0.6,2.1-1.5,3.7-2.6c0,0,0.1,0,0.2,0c0.4,0,1.1,0.1,2.3,0.9c0.8,0.6,1.2,0.8,1.3,1.1
		c0.1,0.8-1.3,1.2-3.5,3.1c-2.7,2.2-3.1,2.6-3.1,2.6c-0.4,0.4-1.1,1.1-2.1,1.2c-0.5,0-0.8-0.1-1-0.1C33.9,36.5,32.7,35.7,32.7,34.8z
		 M25.6,36.3c0.4,0.9-1.2,2.6-2.9,3.3c-2.2,0.8-5.1,0-5.3-1.1c-0.2-1,1.8-2.2,3.2-2.6C22.5,35.3,25.2,35.3,25.6,36.3z M10,32.3
		c-0.4,0-0.7,0.2-1.1,0.3c-0.1,0.1-0.3,0-0.3-0.1c-0.1-0.2,0.1-0.2,0.2-0.3c0.3-0.1,0.7-0.3,1-0.4c0.2-0.1,0.4,0,0.4,0.2
		C10.2,32.2,10.2,32.3,10,32.3z M17.4,31.2c-0.5,0.6-1.2,0.9-2.6,1.4c-0.6,0.2-1,0.3-1.6,0.3c-0.3,0-0.6,0-1-0.2
		c-0.6-0.2-1-0.7-1.2-1.2c-0.2-0.5,0-0.9,0.3-1.4c0.8-1.2,2.1-1.7,2.8-1.9c0.6-0.2,1.1-0.2,1.2-0.2c0.6,0,1.6-0.1,2.2,0.5
		c0.1,0.1,0.4,0.4,0.5,0.9C17.9,30.4,17.6,30.9,17.4,31.2z M22,28.1c-0.2,0-0.4,0.1-0.6,0.1c-0.5,0.1-1.1,0.3-1.7,0.5
		c-0.2,0.1-0.4,0.2-0.6,0.3c-0.2,0.1-0.4,0-0.4-0.2c-0.1-0.2,0.1-0.2,0.3-0.3c1-0.2,1.9-0.5,2.8-0.9c0.3-0.2,0.5-0.1,0.5,0.2
		C22.3,27.9,22.2,28,22,28.1z M29.1,27.4c-0.8,1-2,1.1-2.6,1.2c-0.5,0.1-1.4,0.2-2.3-0.3c-0.3-0.2-0.9-0.5-1.1-1.1
		c-0.2-0.6,0-1.1,0-1.2c0.3-0.9,1.3-1.3,1.8-1.6c1-0.4,1.8-0.4,2.1-0.4c0.5,0,1.4,0.1,2.1,0.7c0.1,0.2,0.5,0.5,0.6,1
		C29.8,26.5,29.2,27.2,29.1,27.4z M33.7,24.6c-0.1,0.1-0.3,0.1-0.4,0.1c-0.8,0-1.7,0.4-1.9,0.5c-0.2,0.1-0.3,0.1-0.5,0.1
		c-0.2,0-0.2,0-0.3,0c-0.1-0.1-0.2-0.3-0.1-0.4c0.1-0.2,0.4-0.2,0.8-0.3c0.7-0.2,1.3-0.4,2.2-0.5c0.1,0,0.3,0,0.4,0.1
		C33.8,24.4,33.8,24.5,33.7,24.6z M39,25.5c-1.5,0.5-3.7,0.1-4.2-1.2c-0.4-1,0.3-2,0.4-2.1c0.8-1.1,2.2-1.2,3.1-1.2
		c0.7,0,1.5-0.1,2.2,0.5c0.1,0.1,0.8,0.6,0.8,1.4C41.4,24.1,40.1,25.2,39,25.5z M45.4,21.8c0,0.1-0.2,0.1-0.2,0.1
		c-0.5,0.1-2.4,0.6-2.8,0.8c-0.1,0-0.2,0.1-0.3,0c-0.1-0.1-0.2-0.3-0.1-0.4c0.1-0.1,0.2-0.1,0.2-0.1c0.3,0,2.2-0.4,2.7-0.6
		c0,0,0.2-0.1,0.3,0C45.4,21.5,45.5,21.7,45.4,21.8z M53.1,20.5c0,0.5-0.3,0.8-0.5,1.1c-0.1,0.1-0.5,0.6-1.4,0.9
		c-0.3,0.1-1.4,0.5-2.8,0.1c-0.4-0.1-2.2-0.6-2.3-1.8c-0.1-0.8,0.5-1.4,0.7-1.6c0.9-1,2.2-1,2.6-1c1.4,0,2.6,0.6,3.2,1.4
		C53.1,20.1,53.1,20.4,53.1,20.5z M54.7,19.7c-0.2,0.1-0.4,0.1-0.5,0.1c-0.3,0.1-0.4,0-0.4-0.2c0-0.2,0.1-0.2,0.2-0.2
		c0.2,0,0.4-0.1,0.6,0c0.1,0,0.2,0,0.2,0.1C54.8,19.7,54.7,19.7,54.7,19.7z"/>
</g>
</svg>
