<svg version="1.1" xmlns="http://www.w3.org/2000/svg" xmlns:xlink="http://www.w3.org/1999/xlink" x="0px" y="0px"
	 viewBox="0 0 60 60" xml:space="preserve">
		<style type="text/css">
			.bl_pr0{fill:#205119;}
			.bl_pr1{fill:#FFFFFF;}
			.bl_pr2{fill:none;stroke:#FFFFFF;stroke-width:0.5;stroke-linecap:round;stroke-miterlimit:10;}
		</style>
		<circle class="bl_pr0" cx="30" cy="30" r="30"/>
		<g>
			<path class="bl_pr1" d="M34.9,27.2c-0.1-1.2-0.2-2.5-0.3-3.8c0-0.5-0.2-0.7-0.7-0.7c-0.3,0-0.5,0-0.8-0.1c-0.5-0.2-0.7-0.6-0.6-1.1
				c0.1-0.6,0.5-0.4,0.9-0.3c1,0.3,2,0.3,3,0c0.4-0.1,0.8-0.4,0.9,0.3c0.1,0.6-0.1,1-0.7,1.1c-0.4,0.1-1-0.3-1.2,0.3
				c-0.1,0.4,0.1,0.9,0.1,1.4c0.2,2.1,0.3,4.3-0.1,6.4c-0.3,1.9-0.8,3.6-2.1,5c-0.2,0.2-0.5,0.4-0.2,0.8c1.5,2.1,3.2,3.9,6.2,3.1
				c1-0.3,1.8-0.9,2.4-1.7c1.1-1.7,1.7-3.6,1.9-5.7c0-0.4,0.1-0.8-0.5-0.8c-0.5,0-0.7-0.4-0.7-0.9c0.1-0.9-0.2-1.5-0.9-2
				c-1.3-1.1-1.7-4.4-0.6-5.8c1.3-1.7,3.2-2.2,5.1-1.3c2.1,1.1,2.7,4.9,1.2,6.8c-0.1,0.1-0.1,0.2-0.2,0.3c-0.9,0.4-1.2,1.2-1.1,2.2
				c0,0.4-0.2,0.7-0.6,0.7c-0.6,0-0.7,0.3-0.7,0.9c-0.1,1.4-0.3,2.7-0.8,4c-1.4,4-4.5,5.7-8.2,4.2c-1.2-0.5-2.2-1.5-2.9-2.7
				c-0.4-0.7-0.9-1-1.7-0.5c-1.1,0.5-2.3,0.6-3.4,0.5c-0.5,0-0.7,0.1-0.6,0.7c0,0.8,0,1.5,0,2.3c0,0.9-0.6,1.7-1.4,1.9
				c-0.4,0.1-0.4-0.1-0.4-0.4c0-0.6,0-1.1,0-1.7c0-0.4-0.1-0.6-0.5-0.7c-0.6-0.2-0.8,0-0.8,0.7c0,1.4,0,2.8,0,4.2
				c0,0.6-0.2,0.7-0.7,0.6c-0.5-0.1-1-0.3-1.4-0.7c-0.7-0.7-1.5-1-2.5-1c-1.8,0-3.6-0.2-5.4-0.8c-1.2-0.5-1.5-0.7-1.5-2.1
				c0-3.9,0-7.8,0-11.7c0-1.3,0.3-1.6,1.4-2c2.8-0.9,5.7-0.9,8.6-0.6c1.3,0.1,2.6,0.3,3.8,1.1c0.5,0.3,0.8,0.7,0.7,1.4
				c-0.1,1.5,0,3,0,4.4c0,0.5,0.1,0.8,0.7,0.7c1.5-0.1,3,0.1,4.2,1.3c0.4,0.4,0.6,0.1,0.8-0.2c1.1-1.5,1.7-3.1,1.9-5
				C34.9,29.1,34.9,28.2,34.9,27.2z M13.1,28.5c0.3,0.4,0.6,0.5,1,0.6c1.6,0.6,3.3,0.8,5,0.8c1.2,0,2.3,0.3,3.2,1.2
				c0.3,0.4,0.8,0.5,1.3,0.5c0.5,0,0.6,0.3,0.6,0.8c0,1.9,0,3.8,0,5.7c0,0.8,0.5,0.7,0.9,0.8c0.6,0.1,0.4-0.5,0.4-0.7
				c0-2.4,0.1-4.8,0-7.2c0-1.1,0-2.1,1.2-2.5c0,0,0-0.1,0.1-0.1C25,26.6,14.9,26.6,13.1,28.5z M31.4,36.1c-1.3-1-2.5-1.2-3.8-1
				c-0.5,0.1-0.4,0.5-0.4,0.9c0,0.3-0.1,0.7,0.4,0.8C28.9,36.8,30.1,36.7,31.4,36.1z"/>
			<path class="bl_pr1" d="M35,20.9c-2.5-0.1-4.2-1.9-4.1-4.4c0-2.6,2-4.2,4.4-4.2c2.4,0,4.2,2,4.2,4.4C39.4,19.1,37.5,21,35,20.9z
				 M35,19.8c1.7,0.2,3.3-1.7,3.4-3.1c0-1.5-1.4-3.2-3.2-3.3c-1.7-0.1-3.3,1.7-3.4,3.1C31.8,18.1,33.5,19.9,35,19.8z"/>
			<path class="bl_pr1" d="M35.5,16.6c0,0.3-0.2,0.5-0.5,0.5c-0.3,0-0.4-0.2-0.4-0.5c0-0.3,0.2-0.5,0.5-0.5
				C35.4,16.1,35.5,16.3,35.5,16.6z"/>
		</g>
		<polygon class="bl_pr2" points="34,17.1 32.7,16.6 34,16.1 "/>
</svg>
