<?xml version="1.0" encoding="utf-8"?>
<!-- Generator: Adobe Illustrator 20.1.0, SVG Export Plug-In . SVG Version: 6.00 Build 0)  -->
<svg version="1.1" id="Слой_1" xmlns="http://www.w3.org/2000/svg" xmlns:xlink="http://www.w3.org/1999/xlink" x="0px" y="0px"
	 viewBox="0 0 60 60" style="enable-background:new 0 0 60 60;" xml:space="preserve">
<style type="text/css">
	.gl0{fill:#0B9600;}
	.gl1{fill:#FFFFFF;}
</style>
<circle class="gl0" cx="30" cy="30" r="30"/>
<path class="gl1" d="M35,23.8c0.2,0.6,0.9,2.5-0.2,4.2c-1.1,1.7-3.2,1.9-3.9,1.9c-0.3,0-4,0.3-5.2-2.2c-0.8-1.6-0.1-3.4,0-3.8
	c0.5-1.2,1.1-1.6,2.5-3.2c1-1.2,1.8-2.3,2.2-3c0.5,0.7,1.2,1.8,2.3,3C34,22.4,34.6,22.7,35,23.8z"/>
<path class="gl1" d="M31.5,35"/>
<path class="gl1" d="M31.2,48.7c0,0.1,0.1,0.4,0,0.7c-0.2,0.3-0.5,0.3-0.6,0.3c0,0-0.6,0-0.8-0.4c-0.1-0.3,0-0.6,0-0.7
	c0.1-0.2,0.2-0.3,0.4-0.6c0.2-0.2,0.3-0.4,0.3-0.5c0.1,0.1,0.2,0.3,0.3,0.5C31,48.5,31.1,48.5,31.2,48.7z"/>
<path class="gl1" d="M29,45.3"/>
<path class="gl1" d="M46.9,15.7c0-2.3-1-4-3-4.9c-1.1-0.5-2.4-0.7-3.6-0.7c-6.5-0.1-13,0-19.5,0c-4.3-0.1-7,1.9-7,7.1
	c0,6.4,0,12.8,0,19.1c0,4.5,2.4,6.8,6.7,6.7c1.5,0,2.9,0,4.6,0c0,3.1,0,5.9,0,8.8c3.7,0,7.3,0,11.1,0c0-2.9,0-5.7,0-8.8
	c1.8,0,3.4,0,4.9,0c3.8-0.1,5.9-2.2,5.9-5.9C46.9,30,46.8,22.9,46.9,15.7z M23.7,35.9c-1.3,0-2.7,0-4,0c0.1-0.4,0.2-0.8,0.3-1.3
	c0.9,0,1.7,0,2.4,0c1,0,1.4,0,1.6,0.3C24.2,35.2,23.9,35.6,23.7,35.9z M34.2,50.5h-7.4v-7.4h7.4V50.5z M28.2,35.5c0-0.4,1.2-1,2.3-1
	c1.1,0,2.3,0.6,2.2,1c0,0.4-1.3,0.7-2.2,0.7C29.6,36.2,28.2,35.9,28.2,35.5z M37.2,36c-0.2-0.2-0.5-0.7-0.3-1
	c0.2-0.3,0.6-0.3,1.6-0.3c0.7,0,1.5,0,2.4,0c0.1,0.4,0.2,0.8,0.3,1.3C39.8,36,38.5,36,37.2,36z M41.2,32.1c-7.1,0-14.2,0-21.4,0
	c0-5.6,0-11.1,0-16.8c7.1,0,14.2,0,21.4,0C41.2,20.9,41.2,26.4,41.2,32.1z"/>
</svg>
