<svg version="1.1" xmlns="http://www.w3.org/2000/svg" xmlns:xlink="http://www.w3.org/1999/xlink" x="0px" y="0px" viewBox="0 0 60 60" xml:space="preserve">
<style type="text/css">
	.st1{fill:#FFFFFF;}
</style>
<circle class="svg-background" cx="30" cy="30.4" r="30"/>
<path class="st1" d="M30.9,34.7"/>
<path d="M37.3,25.2"/>
<path class="st1" d="M49.4,23.6c0.5,0,0.6,0.7,1.9,3.2c1.2,2.2,1.4,2.4,1.4,3.2c0,1-0.5,2.5-2,3.1c-1,0.4-2.1,0.3-3-0.2
	c-1.6-0.9-1.6-2.7-1.6-3.1c0-0.7,0.2-0.9,1.3-2.9C48.8,24.2,49,23.6,49.4,23.6z"/>
<path class="st1" d="M47.6,16.2c-1.7-1.8-2.2-2.2-3-2.5c-1.2-0.4-2.3-0.2-2.7-0.1c-1.2,0.3-2,0.9-2.4,1.2c-3.8,3.7-7.5,7.3-11.3,11
	c-0.5-1.3-1.3-2.1-2.1-2.1c-0.5,0-0.9,0.4-1.2,0.6c0,0-0.5,0.4-1.2,1.6c-0.6,0.2-1.1,0.5-1.4,0.7c-0.5,0.4-0.8,0.6-1,0.9
	c-0.1,0.5,0.1,1,0.2,1.2c-3.7,3.4-7.3,6.9-11,10.3c-0.3,0.4-0.7,1-0.9,1.8c-0.5,3.1,3.3,7.1,6.4,6.5c0.5-0.1,1.4-0.4,2.4-1.5
	c3.4-3.4,6.8-6.7,10.2-10.1c0.2,0.1,0.8,0.6,1.4,0.4c0.3-0.1,0.5-0.3,0.9-0.8c0.5-0.7,0.4-0.8,0.9-1.2c0.5-0.5,0.7-0.4,1.2-0.9
	c0.3-0.3,0.5-0.6,0.6-1.1c0.1-0.6-0.3-1-0.6-1.4c-0.4-0.6-0.9-0.9-1.2-1.1c3-2.9,6.1-5.7,9.1-8.6c0.3-0.4,0.8-1,1.5-1
	c0.6,0,1,0.4,1.7,1c0.6,0.5,1.5,1.2,2.7,2.1c1.2-1.2,2.4-2.4,3.6-3.6C49.3,18,48.3,17,47.6,16.2z M24.3,34.8
	C23.1,36,21.6,36.6,21,36c-0.6-0.6-0.1-2.1,1.1-3.3c1.2-1.2,2.7-1.7,3.3-1.1C26,32.2,25.5,33.6,24.3,34.8z"/>
</svg>
