<svg version="1.1" xmlns="http://www.w3.org/2000/svg" xmlns:xlink="http://www.w3.org/1999/xlink" x="0px" y="0px" viewBox="0 0 60 60" xml:space="preserve">
<style type="text/css">
	.irrig1{fill:#FFFFFF;}
</style>
<circle cx="30" cy="30" r="30"/>
<path class="irrig1" d="M30.9,34.7"/>
<path d="M37.3,25.2"/>
<path class="irrig1" d="M47.5,24c0.5,0,0.6,0.7,1.9,3.2c1.2,2.2,1.4,2.4,1.4,3.2c0,1-0.5,2.5-2,3.1c-1,0.4-2.1,0.3-3-0.2
	c-1.6-0.9-1.6-2.7-1.6-3.1c0-0.7,0.2-0.9,1.3-2.9C46.9,24.6,47.1,24,47.5,24z"/>
<path class="irrig1" d="M45.8,16.9c-1.6-1.7-2.1-2.1-2.8-2.4c-1.1-0.4-2.1-0.2-2.5-0.1c-1.1,0.3-1.9,0.9-2.2,1.2
	c-3.5,3.6-7,7-10.6,10.6c-0.5-1.2-1.2-2-2-2c-0.5,0-0.8,0.4-1.1,0.6c0,0-0.5,0.4-1.1,1.5c-0.6,0.2-1,0.5-1.3,0.7
	c-0.5,0.4-0.7,0.6-0.9,0.9c-0.1,0.5,0.1,1,0.2,1.2c-3.5,3.3-6.8,6.6-10.3,9.9c-0.3,0.4-0.7,1-0.8,1.7c-0.5,3,3.1,6.8,6,6.2
	c0.5-0.1,1.3-0.4,2.2-1.4c3.2-3.3,6.4-6.4,9.5-9.7c0.2,0.1,0.7,0.6,1.3,0.4c0.3-0.1,0.5-0.3,0.8-0.8c0.5-0.7,0.4-0.8,0.8-1.2
	c0.5-0.5,0.7-0.4,1.1-0.9c0.3-0.3,0.5-0.6,0.6-1.1c0.1-0.6-0.3-1-0.6-1.3c-0.4-0.6-0.8-0.9-1.1-1.1c2.8-2.8,5.7-5.5,8.5-8.3
	c0.3-0.4,0.7-1,1.4-1c0.6,0,0.9,0.4,1.6,1c0.6,0.5,1.4,1.2,2.5,2c1.1-1.2,2.2-2.3,3.4-3.5C47.4,18.6,46.4,17.6,45.8,16.9z M24,34.7
	c-1.1,1.2-2.5,1.7-3.1,1.2c-0.6-0.6-0.1-2,1-3.2c1.1-1.2,2.5-1.6,3.1-1.1C25.6,32.2,25.1,33.6,24,34.7z"/>
</svg>
