<svg version="1.1" xmlns="http://www.w3.org/2000/svg" xmlns:xlink="http://www.w3.org/1999/xlink" x="0px" y="0px" viewBox="0 0 60 60" xml:space="preserve">
<style type="text/css">
	.lens1{fill:#FFFFFF;}
</style>
<circle class="svg-background" cx="30" cy="30" r="30"/>
<path class="lens1" d="M30.9,34.7"/>
<path d="M37.3,25.2"/>
<g>
	<path class="lens1" d="M35.6,12.6c1.4-0.3,2.9-0.7,4.3-0.7c4.9,0,6.5,2,7.9,6c1.7,4.8,0.7,9.4-1.4,13.7c-1.6,3.3-3.9,5.9-6.5,8.4
		c-3.6,3.6-7.9,5.5-12.8,6.4c-2.2,0.4-4.4,0.5-6.5-0.1c-3-0.9-5.8-2.2-7.9-4.8c-1.6-2-1.8-4.2-1.2-6.5c0.9-4,3.2-7.2,5.7-10.1
		c4.4-5,9.6-8.8,15.6-11.4C33.7,13.1,34.7,12.9,35.6,12.6z M36.4,15.5c-1.1,0.4-2.3,0.7-3.4,1.3c-6.8,3.2-12.5,7.9-16.7,14.4
		c-1,1.6-1.8,3.3-2.1,5.3c-0.3,2.3,0.7,3.7,2.9,4c1.1,0.2,2.2,0.1,3.3-0.2c9.7-2.6,17.1-8.5,22.4-17.2c0.8-1.3,1.3-2.7,1.5-4.2
		c0.3-2.3-0.7-3.7-2.9-4C39.7,14.7,38.1,15.1,36.4,15.5z M22.1,43.2c10.4,1.7,22.9-8.9,23.5-18.7C40,33.7,32.2,39.9,22.1,43.2z"/>
	<path class="lens1" d="M23.1,27.8c0.1,0.4-0.2,0.5-0.3,0.7c-2.4,2.5-4.5,5.3-5.6,8.7c-0.2,0.7-0.7,0.3-1,0.2
		c-0.5-0.1-0.4-0.4-0.3-0.8c0.6-1.8,1.5-3.5,2.5-5.1c1-1.5,2.1-2.8,3.3-4.1C22.2,26.9,22.9,27.1,23.1,27.8z"/>
</g>
</svg>
