<?xml version="1.0" encoding="utf-8"?>
<svg version="1.1" xmlns="http://www.w3.org/2000/svg" xmlns:xlink="http://www.w3.org/1999/xlink" x="0px" y="0px"
	 viewBox="0 0 60 60" xml:space="preserve">
<style type="text/css">
	.st0{fill:#1F7F14;}
	.st1{fill:#FFFFFF;stroke:#FFFFFF;stroke-width:0.25;stroke-miterlimit:10;}
	.st2{fill:#FFFFFF;}
	.st3{fill:#1F7F14;stroke:#1F7F14;stroke-width:0.5;stroke-miterlimit:10;}
</style>
<circle class="st0" cx="30.1" cy="30.1" r="30"/>
<path class="st1" d="M12.2,30.5c-1.4-0.2-1.4-0.2-1.4-1.6c0-0.9,0-1.7,0-2.6c0-0.2-0.2-0.5-0.3-0.6c-0.5-0.4-0.5-1.6,0-1.9
	c0.1-0.1,0.3-0.3,0.3-0.5c0-0.5,0-1,0-1.5c0-0.9,0.1-1,1.1-1c0.1,0,0.2,0,0.4,0c0-1,0-2,0-3c0-2-0.2-1.6,1.7-2
	c0.7-0.1,1.1-0.3,1.5-1c0.8-1.7,2.2-2.8,3.9-3.5c0.3-0.1,0.5-0.3,0.8-0.6c2.8,1.5,3.9,7.8,1.3,11.1c-0.4-0.1-0.7-0.3-1-0.4
	c-1.9-0.3-3.4-1.2-4.7-2.7c-0.1-0.2-0.4-0.2-0.6-0.3c-0.1,0.2-0.2,0.4-0.2,0.6c0,0.6,0,1.1,0,1.7c1.4,0.3,1.4,0.3,1.4,1.6
	c0,0.4,0,0.7,0,1.1c0,0.1,0.1,0.3,0.2,0.4c0.7,0.2,0.6,0.8,0.5,1.3c0,0.3-0.3,0.6-0.5,0.9c-0.1,0-0.1-0.1-0.2-0.1c0,1,0,2.1,0,3.1
	c0,1.3,0,1.4-1.4,1.5c0,0.3,0,0.6,0,1c0,0.4,0,0.8-0.5,1c-0.1,0-0.2,0.3-0.2,0.4c0,1.9,0,3.8,0,5.7c0,0.5,0.2,0.7,0.6,0.6
	c0.1,0,0.2,0,0.3,0c10.9,0,21.8,0,32.7,0c1,0,1,0,1-1c0-2.7,0-5.5,0-8.2c0-0.6-0.2-0.9-0.8-0.8c-0.3,0-0.6,0-0.9,0
	c-1-0.2-1.6,0.4-2.3,1c-0.2,0.1-0.4,0.2-0.7,0.2c-0.3,0-0.7,0-1.1,0c0,1.4,0,2.7,0,4c0,0.4,0,0.9,0,1.3c0.1,0.7-0.3,0.9-0.9,0.9
	c-3.7,0-7.4,0-11.1,0c-3.2,0-6.4,0-9.6,0c-0.2,0-0.5,0-0.7,0c-0.5,0-0.7-0.3-0.7-0.8c0-2.3,0-4.5,0-6.8c0-1.5,0-3,0-4.5
	c0-1,0.1-1.1,1.1-1.1c6.6,0,13.3,0,19.9,0c2.2,0,1.9-0.1,1.9,1.9c0,0.4,0,0.8,0,1.2c0.2,0,0.3,0.1,0.4,0.1c1-0.1,1.7,0.5,2.4,1.1
	c0.1,0.1,0.3,0.1,0.5,0.1c0.7,0,1.5,0,2.2,0c1,0,1.6,0.6,1.6,1.5c0,3.2,0,6.4,0,9.6c0,1-0.6,1.5-1.5,1.5c-11.4,0-22.7,0-34.1,0
	c-1,0-1.6-0.6-1.6-1.6c0-2,0-3.9,0-5.9c0-0.3,0-0.6-0.4-0.8c-0.1-0.1-0.2-0.4-0.3-0.6C12.2,31.3,12.2,30.9,12.2,30.5z M36.1,36.3
	 M20.2,11.3c-0.1,0.1-0.4,0.2-0.6,0.3c-1.5,0.7-2.9,1.5-3.5,2.9c-0.7,1.6,0,3.2,0.1,3.4c0.6,1.4,1.8,2,2.5,2.4
	c1.1,0.6,2.1,0.7,2.7,0.8c0.3-0.6,1.3-2.5,1-5.1C22.1,13.4,20.6,11.8,20.2,11.3z M14.1,28.8c0,0.1,0,0.2,0,0.3c-1,0-2,0-3,0
	c-0.1,1,0,1.1,0.8,1.1c1,0,2.1,0,3.1,0c0.9,0,1-0.1,0.8-1c-0.3,0-0.6-0.1-0.9-0.1c0,0,0-0.1,0-0.1c0.3,0,0.6-0.1,0.9-0.1
	c0-1,0-2,0-3c-1.6,0-3.2,0-4.8,0c0,1,0,2,0,3C12.2,28.8,13.1,28.8,14.1,28.8z M16,23.7c0-0.8,0-1.5,0-2.2c0-0.2-0.3-0.4-0.4-0.4
	c-1.4,0-2.7,0-4.1,0c-0.1,0-0.4,0.2-0.4,0.3c0,0.8,0,1.5,0,2.3C12.8,23.7,14.3,23.7,16,23.7z M15,15.8c-0.8,0.1-1.5,0.3-2.2,0.4
	c-0.1,0-0.3,0.2-0.3,0.3c0,1.1,0,2.2,0,3.3c0.7,0,1.4,0,2,0c0.4-0.7-0.5-1.7,0.8-2C15.2,17.2,15.1,16.6,15,15.8z M44.6,27.2
	c-0.3-0.3-0.9-0.3-1-0.3c-0.2,0-0.3,0.1-0.4,0.1c0,0.6,0,1.2,0,1.8c0,0.4,0,0.8,0,1.3c0.1,0,1,0.2,1.4-0.3c0.2-0.2,0.2-0.6,0.3-1.4
	C44.8,27.7,44.8,27.4,44.6,27.2z M12.4,30.4c0,0.1-0.3,0.8,0.1,1.4c0.1,0.1,0.2,0.2,0.3,0.3c0.5,0,1.1,0,1.6,0
	c0.1-0.1,0.2-0.2,0.2-0.3c0.3-0.6,0-1.2,0-1.3c-0.4,0-0.7,0-1.1,0C13.2,30.4,12.8,30.4,12.4,30.4z M45,29.5c0.7,0.1,0.6-0.4,0.6-0.8
	c0-0.4,0.3-1.1-0.6-1.3C45,28.2,45,28.8,45,29.5z M14.6,20.5"/>
<path class="st0" d="M26.8,27c0.8,0,1.4,0.6,1.5,1.4c0,0.8-0.6,1.4-1.4,1.5c-0.8,0-1.5-0.6-1.5-1.4C25.3,27.7,26,27,26.8,27z
	 M28,28.5c0-0.6-0.5-1.1-1.1-1.1c-0.7,0-1.2,0.5-1.2,1.2c0,0.6,0.6,1.2,1.2,1.2C27.5,29.6,28,29.1,28,28.5z"/>
<path class="st2" d="M30.9,34.7"/>
<path d="M37.3,25.2"/>
<path class="st0" d="M26.9,26.2c-1.3,0-2.3,0.9-2.4,2.2c0,1.2,1,2.3,2.2,2.3c1.3,0,2.3-1,2.3-2.3C29.1,27.3,28.1,26.2,26.9,26.2z
	 M26.8,30.4c-1.1,0-2-0.9-2-2c0-1.1,0.9-2,2-1.9c1.1,0,2,1,1.9,2C28.8,29.6,27.8,30.5,26.8,30.4z"/>
<line class="st3" x1="20.1" y1="33.3" x2="43.1" y2="33.3"/>
</svg>
