<?xml version="1.0" encoding="utf-8"?>
<svg version="1.1" xmlns="http://www.w3.org/2000/svg" xmlns:xlink="http://www.w3.org/1999/xlink" x="0px" y="0px"
	 viewBox="0 0 60 60" xml:space="preserve">
<style type="text/css">
	.neb1{fill:#FFFFFF;}
	.neb2{fill:#FFFFFF;stroke:#FFFFFF;stroke-width:0.25;stroke-miterlimit:10;}
</style>
<circle class="svg-background" cx="30.1" cy="30.1" r="30"/>
<path class="neb1" d="M30.9,34.7"/>
<path d="M37.3,25.2"/>
<path class="neb2" d="M48.5,27.8c-0.7,0-1.5,0-2.2,0c-0.2,0-0.4,0-0.5-0.1c-0.7-0.6-1.4-1.2-2.4-1.1c-0.1,0-0.2-0.1-0.4-0.1
	c0-0.4,0-0.8,0-1.2c0-2,0.3-1.9-1.9-1.9c-6.6,0-13.3,0-19.9,0c-1,0-1.1,0.1-1.1,1.1c0,1.5,0,3,0,4.5c0,2.3,0,4.5,0,6.8
	c0,0.5,0.2,0.8,0.7,0.8c0.2,0,0.5,0,0.7,0c3.2,0,6.4,0,9.6,0c3.7,0,7.4,0,11.1,0c0.6,0,1-0.2,0.9-0.9c0-0.4,0-0.9,0-1.3
	c0-1.3,0-2.6,0-4c0.4,0,0.8,0,1.1,0s0.5-0.1,0.7-0.2c0.7-0.6,1.3-1.2,2.3-1c0.3,0,0.6,0,0.9,0c0.6-0.1,0.8,0.2,0.8,0.8
	c0,2.7,0,5.5,0,8.2c0,1,0,1-1,1c-10.9,0-21.8,0-32.7,0c-0.1,0-0.2,0-0.3,0c-0.4,0.1-0.6-0.1-0.6-0.6c0-1.9,0-3.8,0-5.7
	c0-0.1,0.1-0.4,0.2-0.4c0.5-0.2,0.5-0.6,0.5-1s0-0.7,0-1c1.4-0.1,1.4-0.2,1.4-1.5c0-1,0-2.1,0-3.1c0.1,0,0.1,0.1,0.2,0.1
	c0.2-0.3,0.5-0.6,0.5-0.9c0.1-0.5,0.2-1.1-0.5-1.3c-0.1-0.1-0.2-0.3-0.2-0.4c0-0.4,0-0.7,0-1.1c0-1.3,0-1.3-1.4-1.6
	c0-0.6,0-1.1,0-1.7c0-0.2,0.1-0.4,0.2-0.6c0.2,0.1,0.5,0.1,0.6,0.3c1.3,1.5,2.8,2.4,4.7,2.7c0.3,0.1,0.6,0.3,1,0.4
	c2.6-3.3,1.5-9.6-1.3-11.1c-0.3,0.3-0.5,0.5-0.8,0.6c-1.7,0.7-3.1,1.8-3.9,3.5c-0.4,0.7-0.8,0.9-1.5,1c-1.9,0.4-1.7,0-1.7,2
	c0,1,0,2,0,3c-0.2,0-0.3,0-0.4,0c-1,0-1.1,0.1-1.1,1c0,0.5,0,1,0,1.5c0,0.2-0.2,0.4-0.3,0.5c-0.5,0.3-0.5,1.5,0,1.9
	c0.1,0.1,0.3,0.4,0.3,0.6c0,0.9,0,1.7,0,2.6c0,1.4,0,1.4,1.4,1.6c0,0.4,0,0.8,0,1c0.1,0.2,0.2,0.5,0.3,0.6c0.4,0.2,0.4,0.5,0.4,0.8
	c0,2,0,3.9,0,5.9c0,1,0.6,1.6,1.6,1.6c11.4,0,22.7,0,34.1,0c0.9,0,1.5-0.5,1.5-1.5c0-3.2,0-6.4,0-9.6C50.1,28.4,49.5,27.8,48.5,27.8
	z M26.8,27c0.8,0,1.4,0.6,1.5,1.4c0,0.8-0.6,1.4-1.4,1.5c-0.8,0-1.5-0.6-1.5-1.4C25.3,27.7,26,27,26.8,27z M42.2,34.2H20.9V33h21.3
	V34.2z M44.6,29.8c-0.4,0.5-1.3,0.3-1.4,0.3c0-0.5,0-0.9,0-1.3c0-0.6,0-1.2,0-1.8c0.1,0,0.2-0.1,0.4-0.1c0.1,0,0.7,0,1,0.3
	c0.2,0.2,0.2,0.5,0.3,1.2C44.8,29.2,44.8,29.6,44.6,29.8z M45,29.5c0-0.7,0-1.3,0-2.1c0.9,0.2,0.6,0.9,0.6,1.3
	C45.6,29.1,45.7,29.6,45,29.5z M16.1,14.5c0.6-1.4,2-2.2,3.5-2.9c0.2-0.1,0.5-0.2,0.6-0.3c0.4,0.5,1.9,2.1,2.2,4.7
	c0.3,2.6-0.7,4.5-1,5.1c-0.6-0.1-1.6-0.2-2.7-0.8c-0.7-0.4-1.9-1-2.5-2.4C16.1,17.7,15.4,16.1,16.1,14.5z M12.5,16.5
	c0-0.1,0.2-0.3,0.3-0.3c0.7-0.1,1.4-0.3,2.2-0.4c0.1,0.8,0.2,1.4,0.3,2c-1.3,0.3-0.4,1.3-0.8,2c-0.6,0-1.3,0-2,0
	C12.5,18.7,12.5,17.6,12.5,16.5z M11.1,21.4c0-0.1,0.3-0.3,0.4-0.3c1.4,0,2.7,0,4.1,0c0.1,0,0.4,0.2,0.4,0.4c0,0.7,0,1.4,0,2.2
	c-1.7,0-3.2,0-4.9,0C11.1,22.9,11.1,22.2,11.1,21.4z M11.9,30.2c-0.8,0-0.9-0.1-0.8-1.1c1,0,2,0,3,0c0-0.1,0-0.2,0-0.3
	c-1,0-1.9,0-3.1,0.1c0-1,0-2,0-3c1.6,0,3.2,0,4.8,0c0,1,0,2,0,3c-0.3,0-0.6,0.1-0.9,0.1v0.1c0.3,0,0.6,0.1,0.9,0.1
	c0.2,0.9,0.1,1-0.8,1C14,30.2,12.9,30.2,11.9,30.2z M12.8,32.1c-0.1-0.1-0.2-0.2-0.3-0.3c-0.4-0.6-0.1-1.3-0.1-1.4
	c0.4,0,0.8,0,1.1,0.1c0.4,0,0.7,0,1.1,0c0,0.1,0.3,0.7,0,1.3c0,0.1-0.1,0.2-0.2,0.3C13.9,32.1,13.3,32.1,12.8,32.1z"/>
</svg>
