<svg version="1.1" xmlns="http://www.w3.org/2000/svg" xmlns:xlink="http://www.w3.org/1999/xlink" x="0px" y="0px" viewBox="0 0 60 60" xml:space="preserve">
<style type="text/css">
	.net1{fill:#FFFFFF;}
</style>
<circle class="svg-background" cx="30" cy="30" r="30"/>
<path class="net1" d="M30.9,34.7"/>
<path d="M37.3,25.2"/>
<path class="net1" d="M31.8,45.5c0.8,1.9,0.7,3.6-0.3,5l0.5,0.3l1-1.5c0,0-0.1-0.1-0.1-0.1c-1.6-2.7-0.2-6.4,2.9-7.5
	c1.7-0.6,2.6-1,3.1-0.9l2.2-3.2c-0.1-0.1-0.1-0.1-0.1-0.2c-0.2-1.9-0.8-3.8,0.1-5.5c1.5-2.1,3.6-2.3,5.5-2.9c0.2-0.1,0.3,0,0.5,0.1
	l2.3-3.3c-0.2-0.1-0.3-0.4-0.4-0.7c-0.1-1.7-0.7-3.5,0.2-5.2l-1.3-0.8c-1.2,1.9-3.3,1.9-5.1,2.4c-0.6,0.2-0.8-0.5-0.8-1.1
	c-0.1-1.7-0.4-3.4-0.1-5.1l-1-0.6c-1.2,1.6-3.2,1.7-4.8,2.3c-0.8,0.3-1.1-0.3-1.1-1c-0.1-1.7-0.5-3.4-0.1-5.1l-1-0.6
	c-1.3,1.3-3.2,1.5-4.8,2.2c-0.9,0.3-1-0.3-1-1c-0.1-1.6-0.1-3.3-0.2-4.9l-0.7-0.4c-0.4,1.7-0.1,3.4,0,5.1c0.1,2-0.7,3.3-2.6,4
	c-1.7,0.6-3.5,1.2-5.2,1.8l-0.7,1c0.5,1.9,0.4,3.9,0.5,5.8c0,1.4-0.7,2.6-2.1,3.1c-1.8,0.7-3.6,1.5-5.6,1.8l-0.9,1.3
	c0.6,1.9,0.6,3.9,0.6,5.8c0,0.6-0.2,1.2-0.6,1.7l1.2,0.7c1.4-1.8,3.4-2,5.1-2.6c0.6-0.2,0.8,0.3,0.9,0.8c0.6,2.1,0.5,3.9-0.4,5.2
	l1.7,1c0.6-0.7,1.3-1.3,2.2-1.6c3.6-1.3,3.6-1.3,3.8,2.4c0,0.9,0.2,1.8-0.3,2.7l1.2,0.8c0,0,0-0.1,0.1-0.1c1.2-1.2,3.2-1.5,5-2.1
	C31.4,44.8,31.6,45.1,31.8,45.5z M39.5,38.9c-0.5,0.8-4.5,2.7-5.4,2.5c-0.2-0.1-0.5-0.2-0.6-0.4c-1.6-2.3-0.1-6.3,2.7-7.3
	c3.6-1.3,3.6-1.3,3.8,2.5C40,37.2,40.1,38.1,39.5,38.9z M32.6,34.3c-0.6,0.9-4.7,2.8-5.6,2.7c-0.2,0-0.5-0.2-0.6-0.4
	c-1.6-2.2-0.2-6.1,2.4-7.2c4-1.6,4-1.6,4.2,2.7C33,32.9,33.2,33.7,32.6,34.3z M39.8,30.9c-1.3,1.8-3.3,1.9-5.1,2.5
	c-0.4,0.1-0.8-0.2-0.8-0.6c-0.1-1.5-0.4-3-0.2-4.5c0.1-1.7,4.5-4.3,6-3.8c0.2,0.1,0.4,0.3,0.5,0.5C40.8,26,40.5,29.9,39.8,30.9z
	 M44,21.8c3.8-1.5,3.8-1.5,4,2.4c0.1,1.5,0,1.9-0.5,2.7c-0.6,0.9-4.4,2.7-5.4,2.6c-0.2,0-0.5-0.2-0.6-0.4C40.1,27,41.5,22.8,44,21.8
	z M34.4,19.2c1.5-1.9,3.6-2.2,5.6-2.8c0.4-0.1,0.6,0.2,0.7,0.5c1.7,3.6-1.4,8.2-5.6,8.2c-0.4,0-0.7-0.1-0.8-0.4
	C34.2,22.8,33.6,21,34.4,19.2z M27.9,14.3c1.2-1.7,3.3-1.8,5-2.4c0.2-0.1,0.5,0.2,0.6,0.3c0.5,0.6,0.5,4.9,0,5.6
	c-1.2,1.8-3.2,2.1-5.1,2.7c-0.4,0.1-0.9,0-0.9-0.5C27.4,18.1,26.6,16.2,27.9,14.3z M27.1,22.7c1.3-1.9,3.3-2,5.1-2.6
	c0.4-0.2,0.7,0.2,0.9,0.6c1.7,3.7-1,7.9-5.3,8.3c-0.5,0-0.9,0-0.9-0.5C26.8,26.5,26,24.5,27.1,22.7z M24.8,15.8
	c0.7-0.2,1.3-0.3,1.4,0.5c0.3,1.8,0.8,3.7-0.1,5.2c-1.4,2-3.4,2.2-5.2,2.8c-0.5,0.2-0.9-0.2-1-0.7c-0.1-0.4-0.1-0.8-0.1-1.2
	C19.4,17.4,19.7,17.1,24.8,15.8z M19.9,26.3c1.3-1.6,3.3-1.9,5.1-2.4c0.3-0.1,0.6,0.1,0.6,0.3c0.2,1.8,0.9,3.6,0,5.4
	c-1,2-3.2,2.3-5.1,2.8c-0.4,0.1-0.9-0.2-0.9-0.6C19.3,30,18.6,28.2,19.9,26.3z M18,33.7c-1.3,1.8-3.3,2-5.1,2.5
	c-0.4,0.1-0.8-0.1-0.9-0.6c-0.1-0.3-0.1-0.5-0.1-0.8c-0.7-5.1-0.2-5.8,4.9-7.1c0.5-0.1,1.3-0.4,1.4,0.3C18.5,30,19.1,31.9,18,33.7z
	 M19.9,40.9c-0.4,0-0.8,0-1-0.4c-0.6-0.9-0.3-5,0.3-5.9c1.2-1.7,3.2-1.9,4.9-2.4c0.4-0.1,0.7,0.2,0.9,0.6
	C26.8,36.4,24.2,40.6,19.9,40.9z M25.9,44.7c-1.6-3.8,1.2-8.2,5.5-8.3c0.5,0,0.9,0.1,0.9,0.5c0.1,2,0.9,4-0.4,6
	c-1.3,1.7-3.3,1.8-5.1,2.4C26.3,45.5,26.1,45.1,25.9,44.7z"/>
</svg>
