<svg version="1.1" xmlns="http://www.w3.org/2000/svg" xmlns:xlink="http://www.w3.org/1999/xlink" x="0px" y="0px" viewBox="0 0 60 60" xml:space="preserve">
<style type="text/css">
	.net0{fill:#FFFFFF;}
	.net1{fill:#FFFFFF;stroke:#FFFFFF;stroke-miterlimit:10;}
</style>
<circle class="svg-background" cx="30" cy="30" r="30"/>
<path class="net0" d="M30.9,34.7"/>
<path d="M37.3,25.2"/>
<path class="net1" d="M33.1,48.1c0.9,0.7,0.5,2.9,0.6,2.9c0.2,0-0.3-3.3,1.5-5.3c1-1.1,2.6-1.7,3-1.9c1.3-0.5,1.6-0.2,2.5-0.7
	c1.2-0.7,2.1-2,2.3-3.4c0.1-0.8-0.1-1.1-0.3-2.3c-0.2-1.4,0-2.7,0.2-3.9c0.3-0.4,0.7-1,1.3-1.5c1.5-1.3,2.5-0.8,4.1-1.8
	c0,0,0.1-0.1,0.2-0.1c1.5-1.1,2.1-2.6,2.4-3.3c0.4-1.1,0.5-2,0.5-3.2c0.1-1.6-0.2-2-0.4-2.3c-0.3-0.4-0.9-0.8-1.5-0.8
	C48,20.3,46,22,44.8,22.3c-0.1,0-0.2,0.1-0.4,0c-0.4-0.2-0.5-0.7-0.5-1.1c-0.2-2.2,0.8-4.3-0.1-5.4c0,0-0.4-0.5-1.1-0.7
	c-1.5-0.3-3.5,1.9-5.1,2.4c-0.1,0.1-0.4,0.1-0.7,0c-0.4-0.2-0.5-0.7-0.5-1c-0.3-2.2,0.8-4.2-0.1-5.4c-0.4-0.5-1-0.7-1.1-0.7
	c-1.5-0.3-3.3,1.6-5.1,2.3c-0.2,0.1-0.5,0.2-0.7,0c-0.4-0.2-0.4-0.8-0.4-1.1c-0.1-2.5,0.6-4.2-0.2-5.2c-0.2-0.2-0.5-0.5-0.7-0.4
	c-0.5,0.2,0.2,2.2,0,5.4c-0.1,1.5-0.2,2.1-0.6,2.6c-0.6,0.9-1.4,1.2-2.2,1.6c-2.6,1.2-4.2,0.6-5.5,2c-0.2,0.2-0.5,0.5-0.7,1.1
	c-0.7,1.8,0.6,3.1,0.5,6.2c0,0.7-0.1,1.2-0.4,1.7c-0.4,0.7-1,1.2-1.9,1.6c-2.8,1.4-4.4,0.5-5.9,2c-0.6,0.5-0.8,1.1-1,1.4
	c-0.6,1.4,0,2.1-0.1,4.5c-0.1,2-0.5,2.7,0.1,3.5c0.1,0.1,0.5,0.7,1.2,0.8c1.8,0.2,4.3-2.4,5.4-2.7c0.1,0,0.3-0.1,0.4,0
	c0.4,0.1,0.5,0.7,0.6,0.8c0.4,1.5-1.3,4-0.4,5.6c0.4,0.7,1.1,1.1,1.8,1.1c0.9,0,1.1-0.9,2.3-1.7c0.1-0.1,2.3-1.5,3.4-0.7
	c0.9,0.7,0.7,2.7,0.6,3.3c-0.2,1.5-0.8,2.1-0.4,2.8c0.4,0.6,1.2,0.8,1.3,0.8c1,0.2,1.5-0.5,3.2-1.2C31.2,48,32.4,47.5,33.1,48.1z
	 M41.4,41c-0.6,0.9-4.8,2.9-5.7,2.7c-0.2-0.1-0.5-0.2-0.7-0.4c-1.7-2.5-0.1-6.7,2.8-7.8c3.8-1.4,3.8-1.4,4,2.7
	C41.9,39.2,42,40.1,41.4,41z M34,36.1c-0.6,1-5,3-6,2.8c-0.2-0.1-0.5-0.2-0.7-0.4c-1.7-2.3-0.3-6.5,2.5-7.6c4.3-1.7,4.3-1.7,4.5,2.8
	C34.5,34.6,34.6,35.4,34,36.1z M41.7,32.5c-1.3,1.9-3.5,2-5.5,2.7c-0.5,0.2-0.8-0.2-0.9-0.7c-0.1-1.6-0.4-3.2-0.2-4.8
	c0.1-1.8,4.8-4.6,6.4-4c0.2,0.1,0.4,0.3,0.6,0.5C42.8,27.3,42.5,31.4,41.7,32.5z M46.1,22.8c4-1.5,4-1.5,4.3,2.6
	c0.1,1.6,0,2-0.5,2.8c-0.6,0.9-4.7,2.9-5.7,2.7c-0.2,0-0.5-0.2-0.7-0.4C41.9,28.3,43.4,23.9,46.1,22.8z M36,20c1.6-2,3.8-2.4,6-3
	c0.4-0.1,0.6,0.2,0.8,0.6c1.8,3.9-1.5,8.8-5.9,8.7c-0.4,0-0.8-0.1-0.8-0.4C35.7,23.9,35.1,21.9,36,20z M29,14.8
	c1.3-1.8,3.5-1.9,5.3-2.6c0.2-0.1,0.5,0.2,0.7,0.4c0.5,0.6,0.5,5.2,0,5.9c-1.3,2-3.4,2.3-5.4,2.9c-0.4,0.1-1,0-1-0.5
	C28.5,18.9,27.6,16.8,29,14.8z M28.2,23.8c1.4-2,3.6-2.1,5.4-2.7c0.5-0.2,0.7,0.2,0.9,0.6c1.8,4-1,8.4-5.6,8.8c-0.5,0-0.9,0-1-0.5
	C27.9,27.8,27,25.7,28.2,23.8z M25.7,16.5c0.7-0.2,1.4-0.3,1.5,0.5c0.3,2,0.9,3.9-0.1,5.6c-1.5,2.2-3.6,2.3-5.5,3
	c-0.6,0.2-0.9-0.2-1-0.7c-0.1-0.4-0.1-0.8-0.1-1.2C20,18.1,20.3,17.8,25.7,16.5z M20.5,27.6c1.4-1.7,3.5-2,5.5-2.6
	c0.3-0.1,0.6,0.1,0.7,0.4c0.2,1.9,0.9,3.9,0,5.7c-1.1,2.1-3.4,2.5-5.5,3c-0.5,0.1-0.9-0.2-1-0.6C19.9,31.6,19.2,29.6,20.5,27.6z
	 M18.5,35.5c-1.4,1.9-3.5,2.1-5.4,2.7c-0.5,0.1-0.8-0.2-0.9-0.6C12.1,37.3,12,37,12,36.7c-0.8-5.4-0.2-6.1,5.3-7.5
	c0.6-0.1,1.4-0.4,1.5,0.3C19,31.5,19.6,33.6,18.5,35.5z M20.6,43.1c-0.5,0-0.8,0-1.1-0.4c-0.6-0.9-0.4-5.3,0.3-6.3
	c1.3-1.9,3.4-2,5.3-2.6c0.5-0.2,0.8,0.2,0.9,0.6C27.8,38.3,25,42.8,20.6,43.1z M26.9,47.1c-1.8-4.1,1.3-8.7,5.8-8.8
	c0.5,0,0.9,0.1,0.9,0.6c0.1,2.1,0.9,4.2-0.4,6.4c-1.3,1.8-3.5,1.9-5.5,2.5C27.3,48,27.1,47.6,26.9,47.1z"/>
<path class="net1" d="M3.4,9.6"/>
</svg>
