<svg version="1.1" xmlns="http://www.w3.org/2000/svg" xmlns:xlink="http://www.w3.org/1999/xlink" x="0px" y="0px" viewBox="0 0 60 60" xml:space="preserve">
<style type="text/css">
	.ort1{fill:#FFFFFF;}
</style>
<circle class="svg-background" cx="30" cy="30" r="30"/>
<path class="ort1" d="M30.9,34.7"/>
<path d="M37.3,25.2"/>
<path class="ort1" d="M16.6,27.7c0-6,0-11.9,0-17.9c0-0.9,0-1,1.3-1c5.6,0,11.1,0,16.7,0c0.8,0,1.1,0.2,1.1,0.8
	c-0.3,5.3-0.7,10.5-0.9,15.8c-0.1,2.6-0.3,5.3-0.3,7.9c0,2.9,3,4.9,5.9,5.5c1.3,0.3,2.7,0.6,4,0.8c0.6,0.1,0.8,0.3,0.8,0.8
	c0,3.6-0.1,7.1,0,10.7c0,0.6-0.3,0.8-1.1,0.8c-6.2,0-12.4,0-18.5,0c-5,0-8.9-3-8.9-6.7C16.6,39.4,16.6,33.6,16.6,27.7z M25.9,19
	L25.9,19c-2.3,0-4.6,0-6.9,0c-1.2,0-1.2,0-1.2,0.9c0,0.7,0,1.4,0,2.1c0,0.5,0.2,0.7,0.9,0.7c1-0.1,2.1,0.1,2.9,0.5
	c1.8,1,3,2.3,2.9,4.1c0,2.1,0,4.2,0,6.3c0,0.5,0.2,0.7,0.9,0.8c2.6,0.4,5.1,0.8,7.7,1.3c0.5,0.1,0.7,0,0.6-0.4c-0.2-1-0.4-2-0.3-3.1
	c0.2-4.1,0.4-8.3,0.7-12.4c0-0.5-0.2-0.7-0.9-0.7C30.6,19,28.3,19,25.9,19z M27.9,51.1c0.5,0,0.7,0,1,0c4.6,0,9.2,0,13.9,0
	c0.9,0,1.2-0.2,1.2-0.9c0-3,0-5.9,0-8.9c0-0.7-0.3-1-1.2-1.1c-1.8-0.3-3.6-0.5-5.1-1.4c-0.6-0.3-0.9-0.2-1.2,0.3
	c-1.9,2.7-3.8,5.4-5.8,8.1C29.8,48.5,28.9,49.8,27.9,51.1z M25.8,51.1c0.7,0,1.3,0.1,1.8-0.6c2.7-3.9,5.6-7.9,8.3-11.8
	c0.4-0.6,0.2-1-0.8-1.5c-0.7-0.4-1,0.2-1.2,0.4c-1.5,1.3-3,2.7-4.5,4.1c-2.7,2.5-5.5,5.1-8.2,7.6c-0.4,0.3-0.4,0.5,0.1,0.8
	C22.7,50.8,24.2,51.1,25.8,51.1z M31.7,38.9c-0.6,0.1-1,0.1-1.3,0.1c-1.7,0.2-3.4,0.4-5,0.6c-0.6,0.1-0.9,0.3-1,0.7
	c-0.1,0.6-0.4,1.2-0.9,1.7c-1.3,1.2-2.9,1.9-5,1.8c-0.4,0-0.6,0.1-0.7,0.5c-0.1,1.7,0.1,3.3,1.7,4.6c0.7,0.6,0.8,0.6,1.4,0
	c1.3-1.3,2.6-2.5,3.9-3.7C27.1,43.2,29.2,41,31.7,38.9z M24.5,36.9L24.5,36.9c0,0.5,0,1,0,1.5c0,0.6,0.3,0.7,1,0.6
	c1.6-0.2,3.2-0.5,4.9-0.6c1.8-0.1,2.7-0.8,3.7-1.8c0.3-0.3,0.2-0.5-0.3-0.5c-2.9-0.5-5.7-0.9-8.6-1.4c-0.4-0.1-0.6,0-0.6,0.4
	C24.5,35.7,24.5,36.3,24.5,36.9z"/>
</svg>
