<?xml version="1.0" encoding="utf-8"?>
<svg version="1.1" xmlns="http://www.w3.org/2000/svg" xmlns:xlink="http://www.w3.org/1999/xlink" x="0px" y="0px"
	 viewBox="0 0 60 60" style="enable-background:new 0 0 60 60;" xml:space="preserve">
<style type="text/css">
	.steto{fill:#FFFFFF;}
</style>
<circle cx="30" cy="30" r="30"/>
<g>
	<path class="steto" d="M20,9.3c0.6,0.3,1.1,0.7,1.2,1.4c0.1,0.6-0.2,1.1-0.6,1.4c-0.4,0.3-1,0.5-1.5,0.3c-0.5-0.3-1-0.1-1.5,0
		c-0.7,0.2-1.4,0.4-2.1,0.6c-1.5,0.5-2,1.5-2.2,2.8c-0.3,2.9,0.4,5.5,1.6,8.1c0.6,1.2,1.3,2.4,2.1,3.5c0.1,0.1,0.1,0.2,0.3,0.3
		c0.8,0.1,1.2,0.7,1.7,1.2c1.1,1,2.3,1.8,3.8,2.1c1.4,0.3,2.6,0,3.8-0.6c1-0.6,1.9-1.3,2.7-2.1c0.2-0.2,0.4-0.4,0.7-0.5
		c0.4-0.1,0.6-0.3,0.8-0.6c1.5-2,2.5-4.2,3.2-6.6c0.4-1.6,0.6-3.3,0.3-5c-0.2-1.2-0.8-2.1-2.1-2.5c-1-0.3-1.9-0.6-2.9-0.8
		c-0.1,0-0.3,0-0.4,0c-1,0.4-1.9,0.2-2.3-0.6c-0.4-0.8-0.1-1.7,0.8-2.2c0.1,0,0.1-0.1,0.2-0.1c0.3,0,0.7,0,1,0
		c0.4,0.2,0.7,0.4,0.9,0.7c0.1,0.1,0.2,0.2,0.4,0.2c0.8,0.2,1.6,0.3,2.3,0.6c1.2,0.4,2.4,0.9,3.2,1.9c0.6,0.7,0.9,1.6,1,2.5
		c0.3,1.9,0.1,3.7-0.3,5.6c-0.5,1.9-1.2,3.7-2.1,5.4c-0.5,0.9-1,1.7-1.7,2.5c-0.1,0.2-0.2,0.3-0.2,0.6c0,0.4-0.2,0.7-0.4,1
		c-1,1-2.1,1.9-3.3,2.6c-0.9,0.5-1.9,0.9-3,1.1c-0.5,0.1-0.5,0.1-0.5,0.6c0,2.1,0,4.2,0,6.4c0,3.4,1.6,6.1,4.8,7.8
		c1.8,1,3.8,1.3,5.8,1c2.2-0.3,4-1.3,5.5-2.8c1.3-1.4,2.1-3.1,2.3-5c0.2-2.2,0-4.4,0.1-6.6c0-0.2-0.1-0.3-0.3-0.4
		c-2-0.5-3.6-1.6-4.4-3.4c-0.8-1.8-0.7-3.6,0.4-5.4c0.7-1.1,1.7-2,3-2.5c1.7-0.6,3.3-0.6,5,0.1c1.3,0.5,2.2,1.4,2.9,2.5
		c1.3,2.2,1,4.9-0.7,6.8c-0.9,0.9-2,1.5-3.2,1.8c-0.4,0.1-0.5,0.2-0.5,0.6c0,1.8,0,3.7,0,5.5c0,3-1.1,5.5-3.3,7.7
		c-1.5,1.4-3.2,2.3-5.2,2.8c-0.5,0.1-1.1,0.2-1.6,0.3c-0.9,0-1.7,0-2.6,0c-0.5-0.1-1.1-0.2-1.6-0.3c-2.6-0.7-4.6-2-6.2-4
		c-1-1.2-1.7-2.6-2-4.2c-0.2-0.7-0.3-1.5-0.3-2.2c0-2.2,0-4.4,0-6.6c0-0.3-0.1-0.5-0.4-0.5c-1.9-0.3-3.4-1.2-4.9-2.3
		c-0.5-0.4-1-0.9-1.5-1.4c-0.3-0.3-0.5-0.6-0.4-1c0-0.2-0.1-0.4-0.2-0.6c-1.6-2-2.7-4.3-3.5-6.7c-0.6-1.9-0.9-3.8-0.8-5.7
		c0.1-1.3,0.3-2.5,1.2-3.6c0.8-1,1.9-1.5,3.1-1.8c0.8-0.2,1.7-0.4,2.5-0.6c0.1,0,0.3-0.1,0.3-0.2c0.2-0.3,0.6-0.5,0.9-0.7
		C19.4,9.3,19.7,9.3,20,9.3z M44.6,32.9c2.4-0.1,4.1-1.6,4.1-3.9c0-2.2-1.8-3.8-4.1-3.8c-2.4,0-4.2,1.8-4.1,3.9
		C40.4,31.2,42.2,32.9,44.6,32.9z"/>
	<path class="steto" d="M44.5,32c-1.8,0-3.3-1.3-3.2-3c0.1-1.7,1.4-2.9,3.2-3c1.8,0,3.2,1.3,3.2,3C47.7,30.7,46.3,32,44.5,32z"/>
</g>
</svg>
