<?xml version="1.0" encoding="utf-8"?>
<svg version="1.1" id="Слой_1" xmlns="http://www.w3.org/2000/svg" xmlns:xlink="http://www.w3.org/1999/xlink" x="0px" y="0px"
	 viewBox="0 0 60 60" style="enable-background:new 0 0 60 60;" xml:space="preserve">
<style type="text/css">
	.sut_0{fill:#FFFFFF;}
</style>
<circle class="svg-background" cx="30" cy="30" r="30"/>
<path class="st0" d="M30.9,34.7"/>
<path d="M37.3,25.2"/>
<g>
	<path class="sut_0" d="M57.2,17.6c-0.5,0.4-1,0.6-1.4,1c-1.3,1.1-2.6,2.1-3.9,3.2c-0.8,0.7-1.6,1.4-2.4,2.1c-1.1,1-2.3,2-3.4,3
		c-1.9,1.8-4,3.4-6.2,5c-1.4,1-2.8,1.9-4.3,2.6c-0.1,0.1-0.3,0.2-0.3,0.3c0,0.2-1,2.9-2.4,4.8c-1,1.3-2.1,2.1-2.7,2.6
		c-0.6,0.5-1.2,0.8-1.3,0.8c-0.3,0.2-0.8,0.4-1.4,0.7c-0.6,0.2-1.4,0.6-2.4,0.9c-0.2,0-0.3,0.1-0.5,0.1c-1.9,0.4-3.8,0.5-5.8,0
		c-1.7-0.4-3.4-1.1-4.9-2.1c-1.1-0.7-2.1-1.5-3.1-2.3c-0.2-0.2-0.3-0.5-0.5-0.7c0,0,0-0.1,0-0.1c0-0.1,0.1,0,0.2,0
		c0.6,0.3,1.2,0.6,1.8,1c2.1,1.6,4.4,2.6,6.9,3c1.9,0.3,3.8,0.2,5.6-0.3c1.9-0.5,3.6-1.4,5.1-2.6c0.6-0.5,1.3-1.3,2.6-2.8
		c0,0,0.7-0.9,1.5-3c0.1-0.2,0-0.2,0-0.2c-0.1-0.1-0.1,0-0.2,0c-0.8,0.2-1.6,0.3-2.4,0.4c-1.7,0.1-3.3,0-5-0.4
		c-2.3-0.5-4.5-1.4-6.6-2.5c-1.4-0.7-2.6-1.6-3.7-2.8c-0.9-0.9-1.6-2-2-3.2c-0.4-1.1-0.6-2.2-0.7-3.4c0-1.8,0.5-3.3,1.8-4.5
		c0.8-0.7,1.8-1,2.8-1.2c1.8-0.3,3.7-0.3,5.6-0.1c1.6,0.1,3.2,0.4,4.8,1c1.4,0.5,2.6,1.2,3.7,2.3c0.7,0.7,1.1,1.5,1.6,2.4
		c0.3,0.5,0.8,1.4,1.2,2.4c0.7,1.7,1,4.2,1,5.7c0,0.8-0.1,1.5-0.2,2.2c-0.1,0.3,0,0.4,0.3,0.2c0.7-0.3,1.3-0.6,2-1
		c1.1-0.6,2-1.3,2.9-2.1c0.9-0.8,1.9-1.6,2.7-2.4c0.8-0.8,1.6-1.5,2.3-2.2c0.5-0.5,1-1,1.4-1.5c0.8-0.7,1.5-1.4,2.3-2.1
		c0.7-0.6,1.5-1.2,2.2-1.8c1.1-0.8,2.3-1.5,3.4-2.3c0.5-0.4,1.1-0.7,1.5-1.2C56.8,17.1,57,17.4,57.2,17.6z M15.8,28.6
		c0.4,0.5,0.9,1,1.5,1.5c2,1.6,4.3,2.7,6.6,3.5c2.1,0.7,4.3,1.2,6.5,1c1.1-0.1,2.1-0.2,3.1-0.4c0.4-0.1,0.6-0.2,0.7-0.6
		c0.1-1,0.2-0.9,0.2-1.4c0.1-1.8-0.4-4.4-0.4-4.4c-0.5-2.9-0.7-3.8-1-4.5c-0.4-1-0.7-1.5-0.9-1.7c-0.6-0.9-1.4-1.7-2.4-2.2
		c-0.5-0.2-1-0.6-1.5-0.7c-1.7-0.6-3.4-0.9-5.1-1c-1.2-0.1-2.3-0.1-3.5,0c-1.1,0.1-2.2,0.2-3.3,0.7c-1.2,0.5-2,1.4-2.4,2.7
		c-0.2,0.8-0.3,1.6-0.2,2.5C14,25.3,14.6,27,15.8,28.6z M28.5,42.2c-2.6,1.4-5.4,2-8.4,1.9C23.2,44.5,26,43.8,28.5,42.2z"/>
</g>
</svg>
