<?xml version="1.0" encoding="utf-8"?>
<!-- Generator: Adobe Illustrator 20.1.0, SVG Export Plug-In . SVG Version: 6.00 Build 0)  -->
<svg version="1.1" id="Слой_1" xmlns="http://www.w3.org/2000/svg" xmlns:xlink="http://www.w3.org/1999/xlink" x="0px" y="0px"
	 viewBox="0 0 60 60" style="enable-background:new 0 0 60 60;" xml:space="preserve">
<style type="text/css">
	.term0{fill:#0B9600;}
	.term1{fill:#FFFFFF;}
</style>
<circle class="term0" cx="30" cy="30" r="30"/>
<path class="term1" d="M11.1,44.2c0.6-1.2,1.7-2,2.7-2.9c1.1-1.1,2.2-2.2,3.3-3.3c0.2-0.2,0.3-0.5,0.4-0.8c0.2-0.6,0.3-1.2,0.4-1.9
	c0.2-2,1.5-3.3,2.9-4.5c0.7-0.6,1.4-1.2,2.1-1.9c1.5-1.4,3-2.9,4.6-4.3c1.8-1.6,3.5-3.3,5.3-4.9c1.7-1.6,3.4-3.1,5.1-4.7
	c1.2-1.1,2.5-2.1,4.2-2.6c0.8,0,1.5,0,2.3,0c0.1,0,0.1,0.1,0.2,0.1c1.7,0.4,3,1.2,3.9,2.7c0.3,0.5,0.6,1.1,0.8,1.7
	c0,0.7,0,1.5,0,2.2c-0.5,0.9-0.9,1.9-1.6,2.6c-1.4,1.4-2.9,2.7-4.4,4.1c-0.7,0.6-1.3,1.2-1.9,1.8c-1.5,1.4-3,2.8-4.5,4.2
	c-2.4,2.2-4.8,4.5-7.2,6.7c-1,0.9-1.9,2-3.2,2.4c-1.1,0.3-2.3,0.5-3.4,0.7c-1.1,0.2-2,0.7-2.8,1.5c-1.3,1.3-2.6,2.5-4,3.7
	c-1.7,1.4-4.1,0.7-4.8-1.1c0-0.1-0.1-0.2-0.2-0.3C11.1,45.1,11.1,44.6,11.1,44.2z M17.3,40.2c0,0.1,0,0.1,0,0.2c0.2,0,0.4,0,0.5-0.1
	c0.5-0.4,0.9-0.8,1.4-1.2c1.7-1.6,3.4-3.2,5.1-4.7c1.7-1.6,3.5-3.2,5.2-4.8c1.6-1.5,3.1-2.9,4.7-4.4c0.8-0.7,1.6-1.4,2.3-2.1
	c0.3-0.3,0.8-0.4,1.1-0.1c0.4,0.4,0.3,0.8-0.1,1.2c-0.5,0.5-1.1,1-1.6,1.5c-1.7,1.6-3.5,3.2-5.2,4.8c-1.5,1.4-3,2.9-4.6,4.3
	c-0.6,0.6-1.3,1.2-1.9,1.8c-1.8,1.7-3.7,3.4-5.5,5c0,0.1,0,0.1,0.1,0.2c0.2,0,0.5,0,0.6-0.1c1-1.1,2.2-1.4,3.6-1.5
	c1.9-0.2,3.6-0.8,5.1-2.3c1.6-1.7,3.4-3.2,5.2-4.8c1.7-1.6,3.5-3.2,5.2-4.8c1.5-1.4,3-2.9,4.6-4.3c0.7-0.7,1.5-1.3,2.3-2
	c0.7-0.6,1.4-1.3,1.8-2.1c1.4-2.6-0.5-5.4-3.3-5.8c-1.3-0.2-2.5,0.1-3.5,1c0.4,0.5,0.9,0.9,0.4,1.5c-0.6,0.6-1.1,0-1.6-0.4
	c-0.6,0.6-1.2,1.1-1.9,1.7c0.4,0.3,0.6,0.6,0.9,0.8c0.6,0.5,0.8,0.9,0.4,1.3c-0.3,0.4-0.9,0.3-1.4-0.2c-0.3-0.3-0.7-0.6-1-0.9
	c-0.7,0.6-1.3,1.1-1.9,1.7c0.2,0.2,0.3,0.3,0.4,0.5c0.5,0.5,0.4,0.9-0.2,1.1c-0.2,0.1-0.7,0-0.8-0.1c-0.4-0.4-0.7-0.3-1,0.1
	c-0.4,0.5-0.8,0.9-1.1,1.2c0.3,0.4,0.6,0.8,0.9,1.1c0.3,0.3,0.4,0.7,0.1,1c-0.3,0.4-0.7,0.4-1,0.1c-0.5-0.3-0.9-0.7-1.4-1.1
	c-0.6,0.6-1.2,1.1-1.8,1.7c0.4,0.5,1,0.9,0.4,1.5c-0.3,0.4-0.9,0.2-1.7-0.3c-0.6,0.5-1.2,1.1-1.9,1.7c0.4,0.3,0.6,0.6,0.9,0.8
	c0.6,0.5,0.8,0.9,0.4,1.3c-0.4,0.4-0.9,0.4-1.4-0.1c-0.3-0.3-0.7-0.6-1-0.9c-0.7,0.6-1.3,1.1-1.9,1.7c0.2,0.2,0.3,0.3,0.4,0.5
	c0.2,0.3,0.7,0.4,0.2,0.9c-0.4,0.4-0.8,0.5-1.3,0.1c-0.2-0.1-0.3-0.3-0.5-0.4c-1,0.7-1.2,1.9-1.4,2.9C19.1,37.5,18.6,39,17.3,40.2z
	 M18,43c-0.7-0.6-1.3-1.1-1.9-1.7c-1,0.9-2,1.8-2.9,2.7c-0.5,0.5-0.5,1.2,0,1.7c0.4,0.5,1.3,0.6,1.7,0.2C15.9,45,16.9,44,18,43z"/>
</svg>
